HIERARCHY
ROOT Hips
{
 OFFSET 0.000000 0.000000 0.000000
 CHANNELS 6 Xposition Yposition Zposition Yrotation Xrotation Zrotation
 JOINT Chest
 {
  OFFSET 0.000000 9.876139 0.000104
  CHANNELS 3 Yrotation Xrotation Zrotation
  JOINT Chest2
  {
   OFFSET 0.000000 10.876137 -0.000189
   CHANNELS 3 Yrotation Xrotation Zrotation
   JOINT Chest3
   {
    OFFSET 0.000000 9.827065 0.000000
    CHANNELS 3 Yrotation Xrotation Zrotation
    JOINT Chest4
    {
     OFFSET 0.000000 9.827065 0.000000
     CHANNELS 3 Yrotation Xrotation Zrotation
     JOINT Neck
     {
      OFFSET 0.000000 13.837564 0.000000
      CHANNELS 3 Yrotation Xrotation Zrotation
      JOINT Head
      {
       OFFSET 0.000000 9.147059 -0.000448
       CHANNELS 3 Yrotation Xrotation Zrotation
       End Site
       {
        OFFSET 0.000000 17.513050 -0.000234
       }
      }
     }
     JOINT RightCollar
     {
      OFFSET -3.007721 7.720841 0.000000
      CHANNELS 3 Yrotation Xrotation Zrotation
      JOINT RightShoulder
      {
       OFFSET -14.032560 0.000000 0.000000
       CHANNELS 3 Yrotation Xrotation Zrotation
       JOINT RightElbow
       {
        OFFSET -30.066962 0.000000 0.000000
        CHANNELS 3 Yrotation Xrotation Zrotation
        JOINT RightWrist
        {
         OFFSET -24.575761 0.000000 0.000000
         CHANNELS 3 Yrotation Xrotation Zrotation
         JOINT Prop1
         {
          OFFSET -3.508170 -1.002334 -2.004669
          CHANNELS 3 Yrotation Xrotation Zrotation
          End Site
          {
           OFFSET -75.170729 -33.091210 23.052389
          }
         }
         End Site
         {
          OFFSET -18.342718 0.000000 0.000000
         }
        }
       }
      }
     }
     JOINT LeftCollar
     {
      OFFSET 3.007721 7.720841 0.000000
      CHANNELS 3 Yrotation Xrotation Zrotation
      JOINT LeftShoulder
      {
       OFFSET 14.032560 0.000000 0.000000
       CHANNELS 3 Yrotation Xrotation Zrotation
       JOINT LeftElbow
       {
        OFFSET 30.066962 0.000000 0.000000
        CHANNELS 3 Yrotation Xrotation Zrotation
        JOINT LeftWrist
        {
         OFFSET 24.575761 0.000000 0.000000
         CHANNELS 3 Yrotation Xrotation Zrotation
         End Site
         {
          OFFSET 18.342718 0.000000 0.000000
         }
        }
       }
      }
     }
    }
   }
  }
 }
 JOINT RightHip
 {
  OFFSET -8.019680 -0.000509 -0.000052
  CHANNELS 3 Yrotation Xrotation Zrotation
  JOINT RightKnee
  {
   OFFSET 0.000000 -41.754945 0.000049
   CHANNELS 3 Yrotation Xrotation Zrotation
   JOINT RightAnkle
   {
    OFFSET 0.000000 -40.737371 0.000083
    CHANNELS 3 Yrotation Xrotation Zrotation
    JOINT RightToe
    {
     OFFSET 0.000000 -6.498123 14.692914
     CHANNELS 3 Yrotation Xrotation Zrotation
     End Site
     {
      OFFSET 0.000000 -1.503208 6.410318
     }
    }
   }
  }
 }
 JOINT LeftHip
 {
  OFFSET 8.019680 -0.000509 -0.000052
  CHANNELS 3 Yrotation Xrotation Zrotation
  JOINT LeftKnee
  {
   OFFSET 0.000000 -41.754945 0.000049
   CHANNELS 3 Yrotation Xrotation Zrotation
   JOINT LeftAnkle
   {
    OFFSET 0.000000 -40.737371 0.000083
    CHANNELS 3 Yrotation Xrotation Zrotation
    JOINT LeftToe
    {
     OFFSET 0.000000 -6.498123 14.692914
     CHANNELS 3 Yrotation Xrotation Zrotation
     End Site
     {
      OFFSET 0.000000 -1.503208 6.410318
     }
    }
   }
  }
 }
}
MOTION
Frames: 8
Frame Time: 0.016667
0.000000 88.808225 0.000000 0.000000 -5.826342 0.000000 0.000000 11.116423 0.000000 0.000000 -5.290081 0.000000 0.000000 0.000000 0.000000 0.000000 0.000000 0.000000 0.000000 12.665069 0.000000 0.000000 0.575450 0.000000 0.000000 0.000000 0.000000 0.000000 0.000000 0.000000 2.337306 0.000000 0.000000 -2.337306 0.000000 0.000000 0.000000 0.000000 0.000000 0.000000 0.000000 0.000000 0.000000 0.000000 0.000000 -2.337306 0.000000 0.000000 2.337306 0.000000 0.000000 0.000000 8.578828 0.000000 0.000000 1.905768 0.000000 0.000000 -4.658254 0.000000 0.000000 0.000000 0.000000 0.000000 8.578828 0.000000 0.000000 1.905768 0.000000 0.000000 -4.658254 0.000000 0.000000 0.000000 0.000000
-19.226174 76.693935 35.267647 -145.462319 -2.231900 -0.285311 -2.904953 9.570456 2.865507 -1.352311 4.230038 1.318073 -1.352311 4.230038 1.318073 -1.022915 3.169650 0.997486 -13.851276 12.189573 4.225745 -28.018692 -11.190434 13.573892 7.974043 7.822823 3.082010 -22.446804 -56.139079 75.697638 36.450581 1.245809 -7.253369 -5.609896 7.515400 -22.826288 -21.794847 1.706183 -88.274420 8.361134 0.808659 -14.968114 14.240169 -7.855636 -73.926876 -18.311154 10.432749 1.400247 -2.263195 -3.677712 -1.237005 -8.571649 -45.236692 -19.829160 -19.726230 40.787343 -14.708547 16.670981 9.884749 3.321727 0.007597 0.032716 0.031964 30.641207 -6.673795 29.596713 -25.264154 36.311093 -13.096857 -4.394562 -33.560781 -4.163167 0.009808 0.033034 -0.008161
-19.225245 76.663156 35.281705 -145.482531 -2.034413 -0.187539 -2.898545 9.490919 2.861106 -1.358002 4.178834 1.311292 -1.358002 4.178834 1.311292 -1.027035 3.131249 0.992339 -13.848877 12.188967 4.229850 -28.015898 -11.190977 13.580843 7.972650 7.867753 3.057553 -22.384169 -56.248118 75.664153 36.390633 1.318116 -7.316019 -5.621093 7.411340 -22.741437 -21.841432 1.712526 -88.115671 8.351608 0.792425 -14.953499 14.221924 -7.871293 -73.909419 -18.428741 10.509333 1.394969 -2.247326 -3.663226 -1.287615 -8.586788 -45.499089 -19.872571 -19.727471 40.776327 -14.762512 16.818220 9.858213 3.331988 0.003929 0.063689 0.034250 30.676546 -6.793984 29.460921 -25.212812 36.304532 -13.177650 -4.417069 -33.568948 -4.154106 0.026946 0.056384 0.014553
-19.241486 76.631481 35.295620 -145.464533 -1.897429 -0.073780 -2.928750 9.457275 2.825668 -1.373037 4.157320 1.300946 -1.373037 4.157320 1.300946 -1.038194 3.115104 0.984641 -13.834385 12.172600 4.249587 -28.000278 -11.218709 13.616992 7.987723 7.864629 3.013628 -22.580912 -56.348503 75.813366 36.363677 1.359671 -7.281381 -5.633718 7.440823 -22.797095 -21.873222 1.712159 -88.029363 8.348146 0.710598 -14.946522 14.168114 -7.851029 -73.858763 -18.548847 10.529952 1.401089 -2.234618 -3.649448 -1.298143 -8.652505 -45.690005 -19.918046 -19.727345 40.733351 -14.843272 16.930231 9.850503 3.346998 0.005394 0.083838 0.038600 30.706326 -6.865936 29.336448 -25.202579 36.291639 -13.258212 -4.477479 -33.590666 -4.104802 0.014487 0.084170 0.020104
-19.268364 76.608802 35.295743 -145.443199 -1.893543 0.026308 -2.973136 9.470783 2.785763 -1.392748 4.167904 1.287710 -1.392748 4.167904 1.287710 -1.052901 3.123031 0.974875 -13.815034 12.154910 4.275130 -27.978080 -11.248419 13.662581 8.009350 7.786129 2.978104 -22.689291 -56.323679 75.892472 36.346516 1.525619 -7.317563 -5.645511 7.338789 -22.868511 -21.874798 1.695549 -88.106287 8.338802 0.680062 -14.939325 14.114726 -7.852707 -73.824937 -18.683529 10.522032 1.430801 -2.222599 -3.644964 -1.267424 -8.638357 -45.719873 -20.019506 -19.708027 40.703617 -14.878545 16.818001 9.901081 3.343587 0.008699 0.067926 0.039982 30.750926 -6.841127 29.278998 -25.269332 36.282132 -13.349782 -4.591953 -33.621530 -4.002484 0.002364 0.091866 0.021297
-19.295922 76.593415 35.289466 -145.411945 -1.902939 0.117679 -3.026708 9.453365 2.742983 -1.406563 4.174105 1.275207 -1.406563 4.174105 1.275207 -1.063183 3.127681 0.965609 -13.809466 12.159201 4.293522 -27.973521 -11.236873 13.693604 8.029513 7.849075 2.948393 -22.798839 -56.371194 76.024110 36.313639 1.605281 -7.411661 -5.644359 7.338615 -22.979251 -21.864571 1.669118 -88.190930 8.301593 0.717460 -14.937966 14.101794 -7.852274 -73.794400 -18.823557 10.523296 1.440634 -2.228787 -3.651418 -1.190529 -8.562464 -45.736289 -20.154967 -19.691916 40.705607 -14.900240 16.948975 9.913556 3.379115 0.007455 0.036283 0.043955 30.828294 -6.828251 29.222509 -25.359482 36.279360 -13.410224 -4.621708 -33.598309 -3.972769 -0.001364 0.057462 0.026808
-19.316941 76.579446 35.280183 -145.353205 -1.885253 0.198998 -3.047721 9.443193 2.694205 -1.415575 4.172797 1.255836 -1.415575 4.172797 1.255836 -1.069805 3.126726 0.951147 -13.821672 12.176430 4.336533 -28.008336 -11.190544 13.773134 7.977669 7.907882 2.953163 -22.974040 -56.485507 76.223974 36.219569 1.748540 -7.460845 -5.624291 7.307598 -23.044898 -21.844240 1.635278 -88.243524 8.195605 0.728212 -14.894191 14.082788 -7.856311 -73.779895 -18.939097 10.506650 1.454426 -2.237657 -3.673837 -1.117213 -8.467322 -45.786545 -20.294050 -19.672366 40.730185 -14.918837 16.839449 9.956915 3.400231 0.006037 0.010541 0.040055 30.931743 -6.872064 29.142233 -25.452975 36.280579 -13.414368 -4.554338 -33.564668 -4.044653 0.004763 0.044082 0.039397
-19.348434 76.568908 35.278623 -145.279046 -1.905899 0.270647 -3.087562 9.445723 2.648505 -1.431226 4.175476 1.238853 -1.431226 4.175476 1.238853 -1.081426 3.128743 0.938528 -13.830674 12.210825 4.370446 -28.029359 -11.116442 13.829713 7.922395 7.891811 2.941453 -23.060538 -56.514834 76.263304 36.096380 1.783287 -7.452709 -5.573239 7.357571 -23.152736 -21.817811 1.621289 -88.119447 8.113872 0.789404 -14.874678 14.015708 -7.911089 -73.757012 -18.999638 10.442958 1.452172 -2.257378 -3.684045 -1.081474 -8.383347 -45.788884 -20.423176 -19.653760 40.745785 -14.942383 16.849948 9.958869 3.438476 0.007122 0.005555 0.040871 31.011533 -6.891052 29.084303 -25.522598 36.293445 -13.392973 -4.721683 -33.581473 -3.981703 -0.000848 0.044533 0.037069
